<svg xmlns="http://www.w3.org/2000/svg" viewBox="0 0 1891 1185" role="img" aria-label="Casa Folino 1962">
  <title>Casa Folino 1962</title>
  <g fill="#764703" stroke="none" transform="translate(-54.329323,1237.000000) scale(0.100000,-0.100000)">
<path d="M8518 12353 c-8 -10 -39 -79 -67 -153 -29 -74 -56 -144 -61 -155 -5
-11 -23 -58 -40 -105 -56 -151 -73 -194 -92 -237 -10 -24 -18 -50 -18 -58 0
-8 -4 -23 -9 -33 -21 -40 -71 -173 -71 -186 0 -7 -9 -31 -20 -54 -11 -22 -20
-48 -20 -57 0 -8 -8 -34 -19 -58 -10 -23 -42 -114 -70 -202 -29 -88 -56 -169
-60 -180 -5 -11 -15 -40 -22 -65 -7 -25 -16 -49 -20 -55 -4 -5 -10 -31 -14
-57 -6 -39 -4 -48 11 -56 29 -15 249 11 272 31 10 10 38 77 62 150 24 72 47
137 52 143 4 6 36 14 71 17 34 3 104 11 155 16 169 20 464 32 477 21 7 -6 39
-63 71 -128 77 -155 71 -152 220 -152 105 0 123 2 137 18 23 25 22 35 -12 101
-15 31 -51 101 -79 156 -127 252 -254 497 -307 590 -12 22 -36 65 -52 95 -17
30 -53 97 -81 148 -29 50 -52 94 -52 96 0 2 -17 33 -38 67 -21 35 -52 89 -69
119 -127 231 -134 240 -183 240 -23 0 -43 -7 -52 -17z m125 -640 c41 -68 55
-93 154 -270 40 -73 73 -137 73 -142 0 -13 -39 -19 -160 -25 -52 -3 -141 -8
-198 -12 l-103 -7 7 29 c4 16 10 34 13 39 4 6 13 28 20 50 7 22 16 49 21 60 5
11 16 40 24 65 8 25 31 85 50 135 20 49 36 95 36 100 0 9 19 35 26 35 2 0 18
-26 37 -57z"/>
<path d="M10455 12340 c-211 -61 -333 -212 -335 -413 -1 -206 118 -350 412
-498 173 -88 252 -148 289 -221 55 -109 -17 -232 -147 -252 -91 -13 -212 30
-356 127 -63 43 -92 57 -107 52 -29 -9 -131 -167 -131 -203 0 -71 228 -199
428 -241 74 -15 247 -14 311 4 246 65 408 287 369 505 -33 186 -152 310 -438
458 -213 110 -290 182 -290 271 0 55 22 92 76 129 36 25 47 27 134 27 86 -1
101 -4 155 -31 80 -41 131 -70 182 -105 67 -47 86 -41 175 52 97 101 98 113
21 174 -68 54 -237 140 -308 155 -27 7 -64 16 -81 21 -53 16 -292 9 -359 -11z"/>
<path d="M6460 12031 c-14 -5 -50 -14 -80 -21 -204 -48 -421 -193 -548 -369
-48 -65 -112 -193 -112 -223 0 -8 -3 -18 -7 -22 -16 -16 -32 -126 -32 -228 -1
-162 29 -272 114 -413 103 -173 277 -306 480 -369 339 -105 751 9 962 268 61
76 71 102 47 126 -45 43 -190 131 -209 126 -11 -3 -51 -35 -89 -71 -38 -36
-72 -65 -77 -65 -4 0 -14 -6 -21 -13 -55 -53 -227 -101 -336 -94 -167 11 -268
58 -380 176 -48 52 -112 161 -112 193 0 8 -5 19 -12 26 -24 24 -16 228 11 301
70 191 224 326 421 370 106 24 296 3 383 -42 42 -22 62 -11 110 55 23 32 57
78 74 101 18 23 33 50 33 59 0 34 -91 78 -258 124 -57 15 -317 19 -362 5z"/>
<path d="M12802 11968 c-68 -76 -114 -130 -217 -258 -60 -74 -141 -173 -179
-220 -90 -107 -73 -86 -233 -291 -126 -161 -291 -378 -407 -535 -71 -95 -64
-114 49 -134 39 -7 83 -16 99 -21 73 -22 91 -15 153 67 32 41 65 85 73 98 8
12 25 35 37 50 l22 27 93 -20 c179 -39 506 -125 570 -150 16 -6 29 -20 32 -33
8 -38 17 -98 30 -190 7 -51 18 -94 26 -102 14 -13 172 -67 236 -80 44 -10 58
11 50 72 -11 79 -25 173 -36 242 -5 36 -14 94 -19 130 -5 36 -15 92 -21 125
-6 33 -15 87 -21 120 -5 33 -14 85 -19 115 -6 30 -15 80 -20 110 -5 30 -14 80
-20 110 -6 30 -15 80 -20 110 -5 30 -14 75 -20 100 -6 25 -14 70 -19 100 -6
30 -15 78 -21 105 -6 28 -15 70 -20 95 -23 114 -56 260 -61 262 -60 37 -80 36
-117 -4z m-62 -585 c0 -9 4 -30 9 -47 10 -33 38 -169 52 -251 4 -27 15 -81 24
-120 23 -107 26 -104 -80 -75 -16 4 -46 12 -65 18 -19 5 -53 14 -75 20 -69 19
-169 44 -197 49 -16 3 -28 8 -28 12 0 7 264 337 311 388 30 34 49 36 49 6z"/>
<path d="M7627 9327 c-158 -185 -420 -306 -787 -362 -234 -35 -464 -72 -595
-95 -27 -5 -78 -14 -112 -20 -35 -5 -91 -15 -125 -21 -35 -6 -87 -15 -115 -20
-29 -5 -77 -13 -105 -18 -69 -12 -200 -34 -373 -61 -38 -6 -95 -15 -125 -20
-122 -20 -189 -30 -275 -40 -49 -7 -109 -16 -132 -21 -23 -5 -58 -9 -79 -9
-20 0 -66 -5 -103 -11 -73 -11 -154 -22 -281 -39 -47 -6 -110 -15 -140 -20
-30 -5 -95 -14 -145 -20 -49 -6 -106 -15 -125 -20 -19 -4 -75 -13 -125 -20
-49 -6 -107 -15 -130 -20 -41 -10 -164 -35 -245 -50 -50 -9 -245 -54 -300 -69
-19 -6 -66 -19 -105 -31 -38 -11 -88 -25 -110 -32 -58 -16 -233 -73 -280 -91
-22 -9 -103 -39 -180 -68 -338 -125 -682 -292 -1034 -500 -75 -44 -341 -226
-396 -272 -141 -115 -272 -228 -285 -244 -94 -120 -123 -202 -122 -340 1 -199
106 -373 276 -457 67 -33 85 -38 179 -43 l105 -6 22 74 c116 402 456 767 1039
1112 96 57 365 192 461 232 36 15 79 33 95 40 56 25 301 103 360 116 22 4 58
12 80 17 41 10 114 26 195 44 25 5 74 13 110 18 36 5 80 12 98 16 21 4 32 2
32 -5 0 -6 -3 -11 -7 -11 -25 0 -196 -188 -309 -340 -61 -82 -174 -254 -174
-265 0 -2 -14 -28 -32 -57 -30 -51 -138 -264 -170 -338 -14 -30 -38 -88 -93
-225 -7 -16 -25 -64 -40 -105 -15 -41 -34 -93 -42 -115 -25 -67 -93 -276 -115
-350 -10 -38 -28 -101 -39 -140 -11 -38 -27 -97 -35 -130 -9 -33 -19 -69 -24
-80 -4 -11 -15 -51 -25 -90 -9 -38 -25 -106 -36 -150 -28 -110 -36 -144 -44
-185 -4 -19 -10 -44 -15 -55 -5 -11 -15 -54 -24 -95 -18 -93 -42 -195 -65
-280 -25 -91 -52 -199 -61 -240 -11 -51 -70 -263 -120 -430 -17 -58 -38 -130
-46 -160 -8 -30 -18 -64 -23 -75 -5 -11 -19 -54 -31 -95 -44 -143 -121 -375
-130 -392 -6 -10 -10 -23 -10 -29 0 -61 -289 -697 -371 -815 -16 -23 -29 -46
-29 -49 0 -12 -123 -188 -181 -260 -67 -83 -174 -187 -244 -236 -60 -43 -176
-99 -204 -99 -11 0 -22 -4 -25 -9 -16 -26 -254 -37 -343 -15 -30 8 -75 -56
-93 -130 -27 -114 28 -297 134 -446 184 -256 477 -406 796 -405 155 1 241 20
369 82 298 145 504 362 701 738 99 189 100 191 184 388 25 59 46 114 46 120 0
7 4 17 9 23 5 5 33 81 61 169 29 88 56 169 60 180 16 42 29 83 50 165 13 47
31 112 41 144 11 33 19 66 19 74 0 7 9 46 20 85 17 65 45 178 71 297 6 25 14
61 19 80 5 19 14 62 20 95 7 33 16 74 20 90 4 17 13 57 20 90 6 33 16 76 21
95 5 19 16 69 24 110 8 41 22 106 30 145 8 38 15 80 15 93 0 12 4 30 9 40 5 9
15 51 21 92 7 41 16 86 20 100 4 14 13 57 19 95 7 39 16 86 20 105 23 94 31
132 31 154 0 13 6 39 14 58 14 32 21 37 108 63 101 30 237 61 333 75 33 5 85
14 115 21 30 6 73 15 95 19 22 5 57 13 78 19 20 6 52 15 70 20 33 8 173 65
194 79 10 6 37 84 65 187 6 22 15 54 20 70 5 17 12 87 15 158 l6 127 -87 0
c-48 0 -106 -4 -129 -9 -23 -5 -69 -15 -102 -21 -33 -6 -96 -20 -140 -30 -44
-10 -93 -21 -110 -24 -16 -3 -59 -12 -95 -20 -36 -8 -116 -17 -178 -21 l-112
-8 0 40 c0 22 4 53 9 69 5 16 14 63 21 104 15 94 71 346 112 505 51 198 144
514 168 570 5 11 14 38 20 60 6 22 15 49 20 60 4 11 13 36 20 55 7 19 16 45
21 58 5 12 13 32 18 45 63 156 98 230 176 359 101 168 265 322 430 404 l75 37
287 8 c159 4 538 4 843 -1 684 -12 1186 0 1295 30 17 4 57 14 90 21 145 31
340 134 443 233 84 79 151 178 199 290 26 62 31 77 56 181 20 80 30 315 18
389 -20 112 -80 184 -163 193 -43 5 -45 4 -91 -50z"/>
<path d="M9795 8990 c-38 -15 -200 -48 -295 -60 -165 -21 -272 -86 -352 -215
-30 -48 -76 -176 -88 -245 -10 -56 -35 -170 -59 -275 -45 -191 -54 -233 -61
-275 -5 -25 -15 -72 -23 -105 -14 -58 -31 -133 -77 -335 -11 -52 -28 -124 -37
-160 -15 -65 -37 -162 -67 -295 -8 -38 -20 -86 -25 -105 -9 -32 -34 -140 -63
-275 -6 -27 -14 -61 -18 -75 -4 -14 -13 -52 -20 -85 -7 -33 -16 -71 -20 -85
-4 -14 -13 -52 -20 -85 -7 -33 -16 -71 -20 -85 -5 -14 -23 -88 -40 -165 -17
-77 -38 -163 -46 -190 -8 -28 -18 -73 -23 -100 -5 -28 -17 -79 -26 -115 -9
-36 -25 -102 -36 -147 -10 -46 -28 -122 -40 -170 -11 -49 -29 -126 -40 -173
-11 -47 -25 -103 -31 -125 -5 -22 -13 -56 -18 -75 -100 -421 -256 -720 -514
-987 -104 -109 -158 -143 -238 -150 -56 -6 -58 -5 -58 19 0 14 3 28 7 32 4 3
15 35 24 69 9 34 27 96 39 137 12 41 24 86 27 100 2 14 13 54 23 90 90 315
102 731 31 1055 -28 130 -49 204 -72 252 -10 24 -19 46 -19 51 0 19 -86 171
-134 236 -116 156 -326 307 -481 345 -22 5 -67 17 -100 25 -79 20 -304 20
-405 0 -140 -27 -155 -31 -200 -49 -25 -9 -81 -31 -125 -48 -97 -38 -199 -91
-324 -169 -418 -262 -751 -722 -926 -1278 -14 -47 -30 -92 -34 -100 -4 -8 -22
-73 -40 -145 -18 -71 -36 -143 -41 -160 -5 -16 -14 -66 -20 -110 -6 -44 -16
-105 -22 -135 -15 -74 -15 -446 1 -535 23 -133 33 -180 41 -210 42 -144 59
-192 94 -275 121 -287 283 -481 476 -572 113 -53 127 -59 200 -75 89 -19 407
-29 460 -15 19 6 60 16 90 22 60 13 158 44 205 65 350 157 561 335 855 724 93
123 96 126 135 127 383 9 633 121 883 398 42 45 72 55 72 23 0 -24 68 -166
123 -256 59 -99 186 -231 269 -280 130 -76 283 -105 419 -81 30 5 82 14 116
20 287 50 560 246 709 508 119 208 173 297 181 299 6 2 23 -22 38 -54 44 -90
100 -168 171 -236 66 -64 171 -134 214 -143 14 -3 34 -9 45 -14 71 -28 212
-37 311 -20 255 45 395 102 562 227 41 30 79 52 86 50 7 -3 20 -20 29 -39 29
-62 49 -73 110 -60 66 15 199 42 257 53 25 4 68 13 95 19 28 6 73 15 100 20
28 6 68 14 90 19 22 5 76 16 120 26 44 9 83 19 86 21 11 6 61 114 70 150 5 19
14 51 19 72 6 20 14 55 19 77 5 22 16 65 23 95 8 30 25 100 38 155 66 282 232
930 249 970 5 11 30 85 56 165 44 135 137 377 191 498 13 29 24 55 24 57 0 15
189 401 247 505 97 174 303 458 403 559 77 76 154 106 246 94 49 -6 64 -27 89
-123 17 -66 13 -147 -15 -275 -5 -22 -14 -65 -21 -95 -7 -30 -18 -80 -26 -110
-8 -30 -21 -84 -30 -120 -8 -36 -19 -69 -24 -74 -5 -6 -9 -17 -9 -25 0 -14
-130 -427 -150 -476 -4 -11 -13 -40 -20 -65 -7 -25 -16 -54 -21 -65 -4 -11
-13 -40 -20 -65 -6 -25 -15 -54 -19 -65 -20 -53 -54 -185 -71 -279 -6 -28 -14
-73 -20 -101 -29 -155 -33 -458 -7 -545 79 -264 233 -424 483 -499 81 -24 317
-30 402 -10 360 86 597 235 819 514 35 44 67 85 72 90 37 46 151 229 192 310
60 116 98 175 114 175 6 0 30 -37 54 -82 66 -131 112 -211 131 -233 9 -11 24
-31 33 -45 8 -14 46 -58 83 -98 196 -211 423 -287 785 -262 294 21 477 95 765
310 167 126 307 271 465 485 110 151 104 145 147 145 85 0 344 75 466 135 79
40 221 123 245 145 9 8 42 34 73 57 59 45 190 178 250 253 193 242 322 553
353 847 l5 52 -61 56 c-67 60 -169 115 -214 115 -34 0 -32 4 -223 -425 -154
-344 -315 -545 -546 -684 -131 -79 -131 -79 -92 59 28 98 85 303 108 390 5 19
14 58 19 85 6 28 15 70 20 95 22 96 36 354 28 516 -8 179 -24 280 -69 454
-111 424 -376 689 -777 777 -98 21 -355 24 -462 4 -323 -59 -627 -236 -934
-546 -90 -90 -276 -313 -276 -329 0 -3 -20 -33 -44 -68 -57 -82 -186 -319
-186 -342 0 -4 -9 -25 -19 -49 -65 -145 -161 -479 -161 -556 0 -13 -4 -40 -10
-60 -5 -20 -16 -74 -25 -121 -72 -394 -299 -842 -700 -1385 -117 -158 -208
-204 -308 -154 -79 40 -97 65 -122 169 -15 62 2 233 46 450 22 109 65 279 83
330 8 25 16 53 16 63 0 9 4 25 9 35 8 15 117 349 171 527 145 472 73 989 -167
1193 -49 42 -160 103 -226 122 -79 24 -397 8 -432 -22 -5 -4 -16 -8 -26 -8
-27 0 -159 -58 -234 -103 -156 -93 -281 -213 -420 -405 -44 -61 -84 -111 -89
-111 -9 -1 -3 58 14 129 33 137 35 234 5 264 -16 15 -49 11 -280 -39 -80 -17
-124 -26 -170 -34 -348 -66 -364 -70 -396 -123 -37 -60 -50 -104 -109 -368
-17 -73 -35 -153 -70 -300 -4 -19 -11 -51 -15 -70 -4 -19 -10 -46 -15 -60 -4
-14 -14 -52 -21 -85 -7 -33 -28 -121 -47 -195 -18 -74 -38 -153 -43 -175 -12
-53 -22 -93 -75 -282 -9 -32 -18 -68 -21 -81 -3 -12 -9 -25 -14 -28 -5 -3 -9
-13 -9 -23 0 -10 -9 -40 -19 -67 -11 -27 -39 -101 -64 -164 -113 -290 -279
-612 -438 -853 -22 -32 -39 -61 -39 -64 0 -5 -61 -95 -71 -103 -3 -3 -24 -32
-46 -65 -82 -122 -120 -162 -179 -190 -62 -29 -85 -28 -129 7 -67 53 -88 164
-66 353 6 44 15 133 21 199 7 65 18 150 26 187 8 38 18 95 23 127 13 86 54
292 96 482 9 41 20 95 25 120 5 25 13 63 18 85 6 22 13 56 17 75 3 19 14 69
24 110 10 41 28 120 41 175 34 153 60 266 71 310 6 22 15 56 19 75 13 48 58
245 69 300 5 25 19 81 32 125 31 114 35 183 12 231 -18 38 -20 39 -68 39 -50
-1 -136 -14 -275 -42 -41 -8 -95 -18 -120 -22 -94 -16 -318 -74 -350 -90 -19
-10 -67 -79 -73 -106 -3 -11 -12 -47 -20 -80 -28 -108 -74 -302 -93 -395 -3
-14 -17 -72 -30 -130 -14 -58 -31 -132 -39 -165 -134 -592 -200 -853 -255
-1000 -10 -27 -33 -90 -51 -140 -17 -49 -42 -112 -54 -140 -13 -27 -33 -72
-45 -100 -60 -135 -177 -361 -252 -484 -21 -34 -38 -65 -38 -67 0 -3 -27 -45
-60 -94 -115 -171 -216 -249 -328 -253 -54 -2 -56 -1 -83 38 -54 79 -84 328
-58 498 19 132 38 241 60 342 11 55 29 141 39 190 28 137 49 233 66 304 9 35
20 85 24 110 10 51 37 176 70 321 12 52 30 133 40 180 39 175 58 257 73 320 9
36 26 108 38 160 12 52 28 118 36 147 7 28 18 73 23 100 7 44 26 120 50 213 5
19 19 76 30 125 11 50 24 106 30 125 5 19 23 96 40 170 18 74 36 145 41 158 5
13 9 36 9 53 0 16 4 37 9 47 8 16 51 182 71 277 5 22 13 58 19 80 6 22 13 54
16 70 6 29 13 59 35 143 5 20 23 96 40 167 16 72 35 146 40 165 6 19 17 64 25
100 13 60 27 116 69 290 9 36 21 79 26 96 14 43 12 135 -4 163 -7 13 -31 30
-52 37 -43 15 -147 17 -179 4z m7683 -1044 c118 -60 198 -194 222 -376 39
-286 42 -339 37 -560 -7 -327 -35 -412 -187 -574 -93 -99 -150 -168 -150 -183
0 -6 -8 -25 -17 -43 -36 -72 -52 -215 -33 -299 21 -100 34 -146 47 -171 21
-42 20 -47 -52 -175 -154 -275 -285 -426 -448 -514 -82 -44 -175 -45 -234 -2
-46 33 -93 90 -120 146 -10 22 -24 49 -30 60 -28 52 -63 160 -81 250 -30 149
-34 198 -29 430 6 290 18 408 66 630 26 123 50 216 60 240 4 11 23 65 41 120
18 55 42 120 53 145 10 25 26 61 34 80 98 231 321 585 450 714 46 46 103 82
173 110 36 14 146 -1 198 -28z m-10861 -2212 c65 -30 120 -81 155 -145 22 -40
30 -62 59 -164 5 -16 17 -77 26 -135 21 -128 31 -672 14 -732 -6 -21 -16 -57
-22 -80 -27 -104 -74 -180 -169 -278 -100 -103 -137 -155 -165 -235 -14 -40
-35 -151 -35 -187 0 -56 32 -188 61 -255 23 -53 27 -36 -27 -134 -26 -46 -58
-104 -71 -129 -41 -75 -130 -193 -196 -261 -215 -221 -373 -258 -494 -114 -48
58 -103 165 -133 258 -12 40 -26 81 -30 92 -9 20 -19 81 -41 235 -29 214 18
726 91 985 6 22 15 56 20 75 108 452 482 1087 710 1206 66 34 169 33 247 -2z"/>
<path d="M11090 8605 c-195 -53 -365 -229 -451 -465 -37 -102 -34 -300 6 -385
93 -198 268 -299 485 -280 313 27 618 483 535 800 -43 165 -155 277 -336 334
-46 14 -181 12 -239 -4z"/>
<path d="M12600 2303 c-54 -5 -140 -33 -196 -64 -96 -55 -242 -239 -218 -277
12 -18 123 -81 145 -82 9 0 35 28 59 63 50 73 89 108 145 124 187 57 295 -91
214 -294 -5 -13 -13 -33 -18 -45 -5 -13 -19 -50 -31 -83 -12 -33 -30 -79 -41
-103 -10 -23 -19 -47 -19 -52 0 -12 -141 -343 -174 -407 -38 -76 -29 -133 21
-133 38 0 570 181 680 231 24 10 47 19 52 19 20 0 57 22 69 40 9 14 7 27 -8
59 -11 22 -20 46 -20 53 0 21 -30 58 -47 58 -8 0 -29 -6 -46 -14 -18 -8 -70
-28 -117 -46 -47 -17 -107 -40 -134 -51 -27 -10 -57 -19 -67 -19 -10 0 -21 -4
-24 -10 -9 -15 -25 -12 -25 5 0 8 12 40 26 72 47 102 154 403 154 432 0 9 4
21 9 27 29 31 31 215 2 272 -5 9 -15 30 -22 46 -17 35 -82 102 -129 130 -60
38 -156 57 -240 49z"/>
<path d="M7413 1920 l-162 -80 -6 -43 c-4 -24 -5 -56 -3 -73 3 -29 4 -29 73
-32 39 -1 80 -4 93 -7 26 -6 27 -4 -9 -155 -11 -47 -25 -105 -30 -130 -6 -25
-14 -61 -19 -80 -4 -19 -18 -78 -30 -130 -36 -164 -41 -184 -50 -220 -35 -137
-36 -164 -5 -178 14 -7 39 -12 55 -12 16 0 31 -4 34 -9 3 -4 29 -11 57 -15 57
-8 89 9 89 48 0 12 7 53 15 91 9 39 20 95 26 125 22 122 58 297 69 340 9 34
20 87 60 290 10 52 26 129 34 170 28 132 24 147 -43 160 -20 4 -47 10 -61 13
-19 5 -66 -14 -187 -73z"/>
<path d="M10976 1895 c-95 -57 -149 -100 -223 -178 -181 -191 -252 -378 -239
-627 14 -256 124 -412 335 -476 56 -17 181 -18 230 -3 202 65 300 160 343 335
19 76 19 92 8 142 -34 155 -92 239 -206 296 -106 54 -264 55 -380 2 -67 -31
-64 -30 -64 -10 0 83 179 282 327 364 56 31 58 40 18 105 -60 101 -63 102
-149 50z m81 -667 c48 -21 84 -49 114 -91 25 -35 29 -49 29 -106 0 -71 -8 -89
-64 -149 -75 -81 -217 -85 -298 -8 -76 72 -100 170 -59 242 53 93 191 149 278
112z"/>
<path d="M9015 1804 c-35 -5 -52 -12 -119 -45 -255 -124 -315 -480 -112 -667
77 -71 144 -95 266 -95 63 0 120 5 142 13 51 19 55 9 19 -43 -74 -109 -241
-212 -399 -249 -67 -16 -70 -38 -20 -170 13 -35 56 -37 146 -8 224 74 440 247
523 420 40 85 47 105 65 205 17 99 17 149 0 245 -35 193 -127 315 -279 371
-52 19 -176 31 -232 23z m126 -216 c135 -40 211 -227 133 -325 -110 -137 -314
-112 -380 46 -37 87 13 219 96 257 83 38 94 40 151 22z"/>
  </g>
</svg>
